HIERARCHY
ROOT ui
{
	 OFFSET 0 0 0
	 CHANNELS 3 XPosition YPosition Z Position
	 EndSite
	 {
	 OFFSET 0 -1 0
	 }
}
ROOT li
{
	 OFFSET 0 0 0
	 CHANNELS 3 XPosition YPosition Z Position
	 EndSite
	 {
	 OFFSET 0 -1 0
	 }
}
ROOT ul
{
	 OFFSET 0 0 0
	 CHANNELS 3 XPosition YPosition Z Position
	 EndSite
	 {
	 OFFSET 0 -1 0
	 }
}
ROOT ll
{
	 OFFSET 0 0 0
	 CHANNELS 3 XPosition YPosition Z Position
	 EndSite
	 {
	 OFFSET 0 -1 0
	 }
}
ROOT tt
{
	 OFFSET 0 0 0
	 CHANNELS 3 XPosition YPosition Z Position
	 EndSite
	 {
	 OFFSET 0 -1 0
	 }
}
ROOT tb
{
	 OFFSET 0 0 0
	 CHANNELS 3 XPosition YPosition Z Position
	 EndSite
	 {
	 OFFSET 0 -1 0
	 }
}
ROOT td
{
	 OFFSET 0 0 0
	 CHANNELS 3 XPosition YPosition Z Position
	 EndSite
	 {
	 OFFSET 0 -1 0
	 }
}
ROOT v
{
	 OFFSET 0 0 0
	 CHANNELS 3 XPosition YPosition Z Position
	 EndSite
	 {
	 OFFSET 0 -1 0
	 }
}
ROOT bn
{
	 OFFSET 0 0 0
	 CHANNELS 3 XPosition YPosition Z Position
	 EndSite
	 {
	 OFFSET 0 -1 0
	 }
}
MOTION
Frames: 21
Frame Time: 0.002
-0.010913079261779784	0.003133618116378784	0		0.42058984375	-2.29639697265625	0		-1.315147705078125	-0.007685575008392334	0		-0.6350838623046875	-2.908346435546875	0		2.476718505859375	-0.6867835083007813	0		3.800945068359375	0.20985580444335938	0		4.98210009765625	0.37621401977539065	0		5.92757666015625	0.45731613159179685	0		-0.36520001220703124	5.86598046875	0		
0.005953098773956299	4.209999926388264E-6	0		0.4224356689453125	-2.29435595703125	0		-1.31119384765625	-0.0036062591075897215	0		-0.5603530883789063	-2.914174560546875	0		2.488808837890625	-0.66994287109375	0		3.81290625	0.21364923095703126	0		4.9820185546875	0.37611407470703123	0		5.92750927734375	0.45708154296875	0		-0.3310220642089844	5.87065185546875	0		
0.001825476050376892	-0.0028699209690093994	0		0.4133619689941406	-2.28618359375	0		-1.315333984375	-0.007432232856750489	0		-0.63143212890625	-2.90419287109375	0		2.480856689453125	-0.6568589477539063	0		3.82498486328125	0.22643522644042968	0		4.99094091796875	0.37589581298828123	0		5.92604541015625	0.46206927490234373	0		-0.33089825439453124	5.87073974609375	0		
-0.008146272659301759	0.006325086116790771	0		0.43714236450195315	-2.290427978515625	0		-1.2794722900390625	-0.011764372825622559	0		-0.5716017456054687	-2.9028505859375	0		2.486860107421875	-0.6479537353515625	0		3.79891015625	0.22669309997558593	0		4.9818701171875	0.3758988342285156	0		5.92894482421875	0.48249090576171877	0		-0.3459078063964844	5.86001123046875	0		
-0.0013760789632797242	-0.005696075916290283	0		0.411009521484375	-2.288052001953125	0		-1.3324093017578125	1.076900027692318E-5	0		-0.5598973388671875	-2.911914794921875	0		2.4881474609375	-0.6169913330078125	0		3.79800244140625	0.23963554382324218	0		4.9818046875	0.375787841796875	0		5.92524267578125	0.4667785949707031	0		-0.36470230102539064	5.86632666015625	0		
0.0015899989604949952	-0.002673564910888672	0		0.4217830200195313	-2.2941435546875	0		-1.285559814453125	-0.006473895072937012	0		-0.5539939575195313	-2.905910888671875	0		2.47711865234375	-0.611878662109375	0		3.8069765625	0.2424515380859375	0		4.98482177734375	0.3816383056640625	0		5.9415419921875	0.4556478576660156	0		-0.328536376953125	5.8689462890625	0		
0.0055656499862670895	3.3161300420761106E-4	0		0.42773257446289065	-2.287177978515625	0		-1.3215684814453126	-0.0019211100339889527	0		-0.619970703125	-2.8910048828125	0		2.472263916015625	-0.5938436279296875	0		3.822098388671875	0.2561901550292969	0		4.9898603515625	0.3884643859863281	0		5.9251484375	0.466281005859375	0		-0.3293898010253906	5.87002587890625	0		
0.005514769077301025	3.838450014591217E-4	0		0.44265765380859373	-2.283329345703125	0		-1.2516123046875	-0.001711933970451355	0		-0.560081298828125	-2.88869189453125	0		2.470535888671875	-0.5668474731445312	0		3.775970703125	0.24970234680175782	0		4.9757470703125	0.3825341491699219	0		5.92511279296875	0.46604071044921874	0		-0.34537741088867185	5.8602919921875	0		
0.0014375619888305664	-0.002515263080596924	0		0.4145498046875	-2.28293798828125	0		-1.31360888671875	0.0021629090309143065	0		-0.5700697631835937	-2.87749853515625	0		2.476592529296875	-0.5579505615234375	0		3.81008837890625	0.26120355224609376	0		4.98163037109375	0.37535488891601565	0		5.9256259765625	0.43291946411132814	0		-0.3782965087890625	5.85577197265625	0		
-0.011513596534729003	0.0036985390186309816	0		0.4383880615234375	-2.288205810546875	0		-1.27769091796875	-0.0022062830924987793	0		-0.568158447265625	-2.8754580078125	0		2.46872607421875	-0.54387451171875	0		3.8019794921875	0.25424163818359374	0		4.966703125	0.3824460144042969	0		5.9177607421875	0.43293994140625	0		-0.36401214599609377	5.8666533203125	0		
0.0013915129899978638	-0.0024169020652770996	0		0.4163965759277344	-2.28088916015625	0		-1.3176925048828125	-6.111080050468445E-4	0		-0.5533224487304688	-2.880583251953125	0		2.472947509765625	-0.5239478149414063	0		3.80023681640625	0.2752068481445312	0		4.97077294921875	0.3883029479980469	0		5.91723486328125	0.4708122253417969	0		-0.3497368469238281	5.87653369140625	0		
0.01749882507324219	0.006428890228271485	0		0.435429931640625	-2.2730927734375	0		-1.27771484375	-0.0020356369018554687	0		-0.5941470336914062	-2.859995849609375	0		2.4501845703125	-0.5036711120605468	0		3.80426318359375	0.2771048278808594	0		4.96077783203125	0.38834854125976564	0		5.91582275390625	0.4741289978027344	0		-0.3296513977050781	5.8713388671875	0		
0.005428017139434815	6.35545015335083E-4	0		0.41730322265625	-2.278819580078125	0		-1.2777100830078125	-0.0019509320259094238	0		-0.5542034912109375	-2.859439697265625	0		2.44731787109375	-0.4926411437988281	0		3.82536279296875	0.28379461669921874	0		4.95689501953125	0.39632940673828126	0		5.90732275390625	0.48461114501953123	0		-0.3295013427734375	5.871400390625	0		
-0.0016345670223236084	-0.0052187080383300785	0		0.43534121704101564	-2.27300439453125	0		-1.287669921875	2.613849937915802E-4	0		-0.6000707397460937	-2.844783203125	0		2.42769384765625	-0.463386474609375	0		3.7912958984375	0.27720074462890626	0		4.94302099609375	0.40445263671875	0		5.9073330078125	0.48447723388671876	0		-0.36341717529296874	5.8668994140625	0		
-0.011499174118041992	0.003967344045639038	0		0.39743392944335937	-2.2634677734375	0		-1.298636962890625	0.0014864510297775268	0		-0.5740075073242188	-2.83704736328125	0		2.4317548828125	-0.4594278869628906	0		3.78741064453125	0.28423468017578124	0		4.9469453125	0.39636227416992187	0		5.90734765625	0.4843746337890625	0		-0.3632815856933594	5.86696484375	0		
-0.001594149947166443	-0.005098721027374267	0		0.4172227478027344	-2.278668701171875	0		-1.338599365234375	0.0030838310718536376	0		-0.6279523315429687	-2.83028271484375	0		2.4239619140625	-0.4443058471679687	0		3.801230224609375	0.2680536804199219	0		4.93696142578125	0.39546890258789064	0		5.92161767578125	0.48213336181640626	0		-0.34705966186523435	5.874826171875	0		
0.010452094078063965	-0.00318798303604126	0		0.42330337524414063	-2.271686767578125	0		-1.2945428466796876	0.005600726127624512	0		-0.5459368896484375	-2.82826416015625	0		2.4372080078125	-0.4264417724609375	0		3.790603515625	0.2952073059082031	0		4.92718212890625	0.410595458984375	0		5.9216328125	0.4821083984375	0		-0.31388497924804687	5.88047119140625	0		
-0.004346580982208252	0.01107386589050293	0		0.43149441528320315	-2.25672509765625	0		-1.2314637451171875	0.00987138843536377	0		-0.6266792602539063	-2.80714794921875	0		2.39839453125	-0.41289361572265626	0		3.75737158203125	0.2756683044433594	0		4.90922021484375	0.4118509521484375	0		5.92566943359375	0.43356341552734373	0		-0.32892465209960936	5.87173828125	0		
0.0015014510154724122	-0.0019266719818115234	0		0.4014630432128906	-2.259264892578125	0		-1.2405372314453125	0.0030695900917053222	0		-0.5547733764648437	-2.814995849609375	0		2.429689208984375	-0.3912308654785156	0		3.774464599609375	0.2815059509277344	0		4.90005859375	0.3980194396972656	0		5.9129814453125	0.4599923095703125	0		-0.3147392578125	5.88263427734375	0		
-0.0015275989770889282	-0.0048061909675598145	0		0.4083423767089844	-2.269272705078125	0		-1.24052783203125	0.0031515259742736818	0		-0.6345006103515625	-2.793885498046875	0		2.391868896484375	-0.37766162109375	0		3.77046142578125	0.28063812255859377	0		4.8902490234375	0.4122273254394531	0		5.91298779296875	0.4601306457519531	0		-0.3488027648925781	5.877154296875	0		
-0.011410433769226075	0.004409451961517334	0		0.4103785705566406	-2.267209228515625	0		-1.244565673828125	2.853739857673645E-4	0		-0.5564940795898438	-2.794804931640625	0		2.36911767578125	-0.35826873779296875	0		3.747642822265625	0.29503759765625	0		4.87515869140625	0.4055305480957031	0		5.91298828125	0.4603282470703125	0		-0.3147541809082031	5.88280224609375	0		
